# xmcd
#
# Track frame offsets:
#	150
#	21452
#	37525
#	55037
#	69937
#	84100
#	101012
#	121712
#	136355
#	157262
#	171287
#
# Disc length: 2541 seconds
#
# Revision: 0
# Processed by: cddbd v1.5.2PL0 Copyright (c) Steve Scherf et al.
# Submitted via: audiograbber 1.83.01
#
DISCID=8209eb0b
DTITLE=Alabama - Dancin' On The Boulevard
DYEAR=1997
DGENRE=Country
TTITLE0=Dancin', Shaggin' On The Boulevard
TTITLE1=Sad Lookin' Moon
TTITLE2=Anytime (I'm Your Man)
TTITLE3=She's Got That Look In Her Eyes
TTITLE4=My Girl
TTITLE5=Of Course I'm Alright
TTITLE6=I Just Couldn't Say No
TTITLE7=Is The Magic Still There
TTITLE8=Calling All Angels
TTITLE9=Hey Baby
TTITLE10=One More Time Around
EXTD=
EXTT0=
EXTT1=
EXTT2=
EXTT3=
EXTT4=
EXTT5=
EXTT6=
EXTT7=
EXTT8=
EXTT9=
EXTT10=
PLAYORDER=
